<?xml version="1.0" standalone="no"?>
<!DOCTYPE svg PUBLIC "-//W3C//DTD SVG 1.1//EN" "http://www.w3.org/Graphics/SVG/1.1/DTD/svg11.dtd" >
<svg>
<metadata>
Created by FontForge 20090914 at Thu Mar 23 08:10:39 2017
 By www-data
</metadata>
<defs>
<font id="Untitled" horiz-adv-x="833" >
  <font-face 
    font-family="Untitled"
    font-weight="400"
    font-stretch="normal"
    units-per-em="1000"
    panose-1="0 0 0 0 0 0 0 0 0 0"
    ascent="750"
    descent="-250"
    x-height="491"
    cap-height="710"
    bbox="-104.002 -363.997 1267.51 939.001"
    underline-thickness="50"
    underline-position="-50"
    unicode-range="U+0020-U+007A"
  />
<missing-glyph horiz-adv-x="500" 
 />
    <glyph glyph-name=".notdef" horiz-adv-x="500" 
 />
    <glyph glyph-name="space" unicode=" " horiz-adv-x="500" 
 />
    <glyph glyph-name="space" unicode="&#xa0;" horiz-adv-x="500" 
 />
    <glyph glyph-name="A" unicode="A" 
d="M637 426l37 -36l-236 -235l-36 -37l-37 37l-232 232l36 36l233 -233l235 236v0v0z" />
    <glyph glyph-name="B" unicode="B" 
d="M874 259c15.333 0 28.333 -5 39 -15s16 -22.333 16 -37v-336c0 -14.667 -5.33301 -27 -16 -37s-23.667 -15 -39 -15h-353c-15.333 0 -28.166 5 -38.499 15s-15.5 22.333 -15.5 37v336c0 14.667 5.16699 27 15.5 37s23.166 15 38.499 15h353zM874 207h-353v-336h353v336z
M358 259c15.333 0 28.166 -5 38.499 -15s15.5 -22.333 15.5 -37v-336c0 -14.667 -5.16699 -27 -15.5 -37s-23.166 -15 -38.499 -15h-354c-15.333 0 -28.166 5 -38.499 15s-15.5 22.333 -15.5 37v336c0 14.667 5.16699 27 15.5 37s23.166 15 38.499 15h354zM358 207h-354
v-336h354v336zM874 750c15.333 0 28.333 -5 39 -15s16 -22.333 16 -37v-336c0 -14 -5.33301 -26.167 -16 -36.5s-23.667 -15.5 -39 -15.5h-353c-15.333 0 -28.166 5.16699 -38.499 15.5s-15.5 22.5 -15.5 36.5v336c0 14.667 5.16699 27 15.5 37s23.166 15 38.499 15h353z
M874 698h-353v-336h353v336zM358 750c15.333 0 28.166 -5 38.499 -15s15.5 -22.333 15.5 -37v-336c0 -14 -5.16699 -26.167 -15.5 -36.5s-23.166 -15.5 -38.499 -15.5h-354c-15.333 0 -28.166 5.16699 -38.499 15.5s-15.5 22.5 -15.5 36.5v336c0 14.667 5.16699 27 15.5 37
s23.166 15 38.499 15h354zM358 698h-354v-336h354v336z" />
    <glyph glyph-name="C" unicode="C" 
d="M818 393c0 7.33301 3.33203 12.666 9.99902 15.999c6 4.66699 12 4.66699 18 0c6.66699 -3.33301 10 -8.66602 10 -15.999v-410c0 -41.333 -8.33301 -70.166 -25 -86.499s-45.667 -24.5 -87 -24.5h-521c-41.333 0 -70.333 8.33301 -87 25s-25 45.667 -25 87v595
c0 40.667 8.33301 69.5 25 86.5s45.667 25.5 87 25.5h446c6.66699 0 12.334 -3 17.001 -9c3.33301 -6.66699 3.33301 -13 0 -19c-4 -6 -9.66699 -9 -17 -9h-446c-15.333 0 -28 -1 -38 -3s-17.667 -5.83301 -23 -11.5s-9 -13.334 -11 -23.001s-3 -22.167 -3 -37.5v-595
c0 -15.333 1 -28 3 -38s5.66699 -17.667 11 -23s13 -9 23 -11s22.667 -3 38 -3h521c15.333 0 27.833 1 37.5 3s17.167 5.66699 22.5 11s9 12.833 11 22.5s3 22.167 3 37.5v410zM222.999 77c0 5.33301 1.66699 9.66602 5 12.999s7.66602 5 12.999 5h484
c5.33301 0 9.83301 -1.66699 13.5 -5s5.5 -7.66602 5.5 -12.999c0 -12.667 -6.33301 -19 -19 -19h-484c-5.33301 0 -9.66602 1.83301 -12.999 5.5s-5 8.16699 -5 13.5zM222.999 225c0 5.33301 1.66699 9.83301 5 13.5s7.66602 5.5 12.999 5.5h261
c5.33301 0 9.83301 -1.83301 13.5 -5.5s5.5 -8.16699 5.5 -13.5s-1.83301 -9.66602 -5.5 -12.999s-8.16699 -5 -13.5 -5h-261c-5.33301 0 -9.66602 1.66699 -12.999 5s-5 7.66602 -5 12.999zM514.999 283c-3.33301 3.33301 -5.00195 7.66699 -5.00195 13
s1.66699 9.66602 5 12.999l369 369c4.66699 5.33301 10.667 7 18 5c6.66699 -2 11 -6.33301 13 -13c2 -7.33301 0.333008 -13.666 -5 -18.999l-369 -368c-3.33301 -3.33301 -7.66602 -5 -12.999 -5s-9.66602 1.66699 -12.999 5z" />
    <glyph glyph-name="D" unicode="D" 
d="M764 -176h-31.0068h-350c-9.33301 0 -19 0.5 -29 1.5s-19.333 4.16699 -28 9.5c-5.33301 3.33301 -10.833 7.83301 -16.5 13.5s-10.167 12.5 -13.5 20.5c-2.66699 6 -4.16699 12.333 -4.5 19s-0.5 13.334 -0.5 20.001v67v268l-12 -6c-10 -4 -21.333 -5.16699 -34 -3.5
s-24.334 5.83398 -35.001 12.501l-9 7.5c-2.66699 2.33301 -5.33398 4.83301 -8.00098 7.5l-11 10l-37 34c-3.33301 3.33301 -6.83301 6.5 -10.5 9.5s-7.16699 6.16699 -10.5 9.5s-6.33301 6.16602 -9 8.49902s-5.66699 5.16602 -9 8.49902l-6 6
c-1.33301 0.666992 -3.33301 2.33398 -6 5.00098c-4 3.33301 -8.33301 7.33301 -13 12s-8.66699 10.667 -12 18c-2 4 -4 9.33301 -6 16s-2.33301 13.667 -1 21c2.66699 14 7.83398 25.167 15.501 33.5s15.167 15.833 22.5 22.5c6 4.66699 10 8.33398 12 11.001
c2.66699 2 5 4 7 6s4 3.66699 6 5l166 153c4 4 8.66699 8.16699 14 12.5s12 7.83301 20 10.5l25 6c12.667 0 25 0.333008 37 1c10 0 20 0.166992 30 0.5s17.667 -0.166992 23 -1.5c4 -0.666992 9 -2.5 15 -5.5s10.667 -5.83301 14 -8.5
c4.66699 -3.33301 8.66699 -6.83301 12 -10.5l10 -11.5l1 -1c2.66699 -3.33301 6.33398 -6.5 11.001 -9.5s9.66699 -5.5 15 -7.5c6.66699 -2.66699 13.334 -4.83398 20.001 -6.50098s14.334 -3.16699 23.001 -4.5l20 -1h6.5c2.33301 0 5.16602 0.333008 8.49902 1
c16 3.33301 28.333 6.5 37 9.5s17.667 8.16699 27 15.5c0.666992 0.666992 1.5 1.66699 2.5 3s2.16699 2.66602 3.5 3.99902c2 2.66699 4.33301 5.5 7 8.5s6 5.83301 10 8.5l19 12c2 0.666992 4.66699 1.5 8 2.5s6 1.5 8 1.5h12.5h21h21h12.5c23.333 0 40 -2.33301 50 -7
c6.66699 -3.33301 12.334 -7 17.001 -11s9 -8 13 -12l156 -143l9 -9c2.66699 -2.66699 5.66699 -5.33398 9 -8.00098c3.33301 -3.33301 6.83301 -6.5 10.5 -9.5s7.16699 -6.16699 10.5 -9.5l5 -5c4.66699 -4.66699 9.33398 -9.66699 14.001 -15s8.66699 -12 12 -20l1 -6
c0.666992 -1.33301 1 -3.66602 1 -6.99902c2 -13.333 0.333008 -24.5 -5 -33.5s-9.66602 -15.167 -12.999 -18.5l-2 -2l-99 -91c-6.66699 -7.33301 -14.667 -14.833 -24 -22.5s-20.666 -12.834 -33.999 -15.501c-11.333 -2 -21.166 -2 -29.499 0s-16.166 5 -23.499 9v-269
v-89v-5c-4 -17.333 -13 -30.666 -27 -39.999c-10 -7.33301 -21.5 -11.833 -34.5 -13.5s-25.5 -2.5 -37.5 -2.5zM402.993 -130l360.999 0.00390625c5.33301 0 12.5 0.166992 21.5 0.5s15.833 2.16602 20.5 5.49902c2.66699 2 5.33398 6 8.00098 12v86v325l32 21l27 -25
c6 -5.33301 11.333 -9.5 16 -12.5s10.667 -3.83301 18 -2.5c5.33301 1.33301 10.5 4.16602 15.5 8.49902s9.83301 8.83301 14.5 13.5l3 4l97 89c5.33301 6.66699 7.66602 12.334 6.99902 17.001v3v2c-1.33301 2.66699 -3 5 -5 7l-8 8c-1.33301 1.33301 -2.5 2.33301 -3.5 3
s-2.16699 1.66699 -3.5 3l-9 9c-2.66699 2.66699 -5.66699 5.33398 -9 8.00098c-3.33301 3.33301 -6.66602 6.5 -9.99902 9.5s-6.66602 6.16699 -9.99902 9.5l-156 142l-9 9c-2.66699 2.66699 -5.66699 4.66699 -9 6c-0.666992 0 -2.66699 0.333008 -6 1s-10.333 1 -21 1
h-19h-17h-19c-1.33301 -0.666992 -2.66602 -1 -3.99902 -1s-2.33301 -0.333008 -3 -1l-11 -5c-1.33301 -1.33301 -2.33301 -2.5 -3 -3.5s-1.66699 -2.16699 -3 -3.5c-2 -2.66699 -4.33301 -5.33398 -7 -8.00098s-5.66699 -5.33398 -9 -8.00098
c-13.333 -10 -26 -17.333 -38 -22s-27.667 -8.66699 -47 -12c-14 -2 -25 -2.66699 -33 -2l-18 1c-10.667 2 -20.334 4 -29.001 6s-17 4.66699 -25 8c-7.33301 3.33301 -15.5 7.5 -24.5 12.5s-16.167 11.167 -21.5 18.5l-2 2c-6 7.33301 -10.333 12 -13 14
c-0.666992 0 -1.33398 0.166992 -2.00098 0.5s-1.66699 0.5 -3 0.5l-6 3h-63l-14 -1c-5.33301 -0.666992 -9.5 -2 -12.5 -4s-7.16699 -5.33301 -12.5 -10l-30 -28l-137 -126c-4.66699 -4 -8.33398 -7.66699 -11.001 -11c-2.66699 -2 -5 -4 -7 -6s-4.33301 -4 -7 -6
c-7.33301 -6 -12.833 -11.167 -16.5 -15.5s-6.16699 -9.5 -7.5 -15.5c0 -0.666992 0.333008 -1.83398 1 -3.50098s1.33398 -3.16699 2.00098 -4.5c2 -4.66699 6.66699 -10 14 -16c2 -1.33301 4.33301 -3.33301 7 -6l7 -7l7.5 -7.5
c2.33301 -2.33301 5.16602 -4.5 8.49902 -6.5l2 -1c6 -7.33301 12.667 -14 20 -20l49 -45c2 -1.33301 3.83301 -2.83301 5.5 -4.5l4.5 -4.5c2.66699 -1.33301 6.33398 -2.66602 11.001 -3.99902s8.66699 -1.33301 12 0c4.66699 1.33301 8.83398 3.66602 12.501 6.99902
l11.5 11l20 20l35 -19v-391v-13.5c0 -4.33301 0.666992 -7.5 2 -9.5c1.33301 -4.66699 4.66602 -8.33398 9.99902 -11.001c3.33301 -2 8.5 -3.16699 15.5 -3.5s12.167 -0.5 15.5 -0.5h20z" />
    <glyph glyph-name="E" unicode="E" 
d="M502 568c-20 0 -38.502 3.66797 -55.502 11.001s-34.167 18.333 -51.5 33l-18 15l-16 14c-18 16 -33.167 27.167 -45.5 33.5s-25.833 9.5 -40.5 9.5h-152c-12 0 -23.333 -2.5 -34 -7.5s-20.167 -11.667 -28.5 -20s-14.833 -18.333 -19.5 -30s-7 -24.167 -7 -37.5v-622
c0 -26.667 8.83301 -49.167 26.5 -67.5s38.834 -27.5 63.501 -27.5h756c24.667 0 45.834 9.16699 63.501 27.5s26.5 40.833 26.5 67.5v505c0 27.333 -8.66699 50.166 -26 68.499s-38.333 27.5 -63 27.5h-379zM501.998 627.001l378.999 0.00195312
c20.667 0 40.167 -4 58.5 -12s34.333 -19 48 -33s24.5 -30.333 32.5 -49s12 -39 12 -61v-505c0 -21.333 -4 -41.333 -12 -60s-18.833 -35 -32.5 -49s-29.834 -25.167 -48.501 -33.5s-38.334 -12.5 -59.001 -12.5h-756c-21.333 0 -41.166 4 -59.499 12s-34.333 19 -48 33
s-24.5 30.5 -32.5 49.5s-12 39.167 -12 60.5v622c0 21.333 4 41.333 12 60s18.833 35 32.5 49s29.667 25.167 48 33.5s37.833 12.5 58.5 12.5h152c18.667 0 35.5 -2.83301 50.5 -8.5s28.833 -12.834 41.5 -21.501s24.5 -18.167 35.5 -28.5s21.833 -19.833 32.5 -28.5
s21.334 -15.834 32.001 -21.501s22.334 -8.5 35.001 -8.5zM323.997 219.003h356v60h-356v-60zM470.997 424.003v-351h62v351h-62z" />
    <glyph glyph-name="F" unicode="F" 
d="M528 58c0 -3.33301 -1 -6.33301 -3 -9s-4.33301 -4 -7 -4h-186c-2.66699 0 -5 1.66699 -7 5c-2 2.66699 -3 5.66699 -3 9v536c0 9.33301 3.33301 14 10 14h186c6 0 9 -4.66699 9 -14v-536zM670 200c2.66699 0 4.66699 -1 6 -3s0.333008 -4.66699 -3 -8l-238 -286
c-6 -7.33301 -12 -7.33301 -18 0l-238 286c-6 7.33301 -4.33301 11 5 11h484h2z" />
    <glyph glyph-name="G" unicode="G" horiz-adv-x="1280" 
d="M377 334c-24 23.333 -33.832 38.5 -29.499 45.5s20.5 10.5 48.5 10.5h128v313c0 16 3.16699 31.167 9.5 45.5s14.833 26.833 25.5 37.5s23.167 19 37.5 25s29.5 9 45.5 9h157c16 0 31.167 -3 45.5 -9s26.833 -14.333 37.5 -25s19.167 -23.167 25.5 -37.5
s9.5 -29.5 9.5 -45.5v-313h130c25.333 0 40.833 -3.5 46.5 -10.5s-3.5 -22.167 -27.5 -45.5l-259 -257c-21.333 -21.333 -38.333 -37.5 -51 -48.5s-24.334 -16.5 -35.001 -16.5s-22.167 5.5 -34.5 16.5s-29.5 27.167 -51.5 48.5zM1232 78l0.00195312 -156
c0 -16 -3.16699 -31.167 -9.5 -45.5s-14.833 -26.833 -25.5 -37.5s-23.167 -19 -37.5 -25s-29.5 -9 -45.5 -9h-787c-16 0 -31.167 3 -45.5 9s-26.833 14.333 -37.5 25s-19.167 23.167 -25.5 37.5s-9.5 29.5 -9.5 45.5v156h79v-156c0 -11.333 3.66699 -20.666 11 -27.999
s16.666 -11 27.999 -11h787c11.333 0 20.666 3.66699 27.999 11s11 16.666 11 27.999v156h79z" />
    <glyph glyph-name="H" unicode="H" 
d="M52 498c0 19.333 7 36 21 50s31.333 21 52 21h218l89 -93h-380v22zM126 -25c-20.667 0 -38 7 -52 21s-21 30.667 -21 50v428h633c10 0 20.667 -2 32 -6c10 -4 20 -9.66699 30 -17s17.667 -15.333 23 -24c6 -9.33301 9 -19 9 -29v-350c0 -19.333 -7 -36 -21 -50
s-31.333 -21 -52 -21z" />
    <glyph glyph-name="I" unicode="I" 
d="M394 417l-47 -4l-97 -9l35 -29l38 -32l38 -32l-12 -48l-21 -86l40 23l49 28l40 23l40 -23l90 -52c-3.33301 12.667 -6.33301 26.667 -9 42l-9 48l-10 46l34 31l72 63l-103 10l-48 4l-18 44l-39 93l-42 -95zM449 708c4.66699 0 8.66602 -0.999023 11.999 -2.99902
c2 -1.33301 5 -4 9 -8c2.66699 -2 4.66699 -4.66699 6 -8c1.33301 -2.66699 2.33301 -5 3 -7l80 -190l221 -21c8 -2 15 -4.66699 21 -8c4 -3.33301 6 -8.33301 6 -15c0 -7.33301 -2 -13.333 -6 -18c-2.66699 -4 -5 -7 -7 -9l-9 -9l-148 -132
c4.66699 -19.333 8.66699 -37.333 12 -54l10 -48l4 -19l4 -18c0.666992 -3.33301 1.16699 -6.5 1.5 -9.5s0.833008 -6.16699 1.5 -9.5s1.16699 -6.16602 1.5 -8.49902s0.833008 -4.83301 1.5 -7.5l5 -27c0.666992 -7.33301 1.66699 -11.666 3 -12.999
c0.666992 -10 -1.33301 -16.333 -6 -19c-5.33301 -3.33301 -11.333 -5 -18 -5c-2.66699 0 -6 1 -10 3l-11 4l-186 107l-49 -28l-43 -25l-18 -10l-18 -10l-15 -9l-15 -9l-14 -8c-5.33301 -2.66699 -9 -4.33398 -11 -5.00098
c-1.33301 -1.33301 -2.66602 -2.16602 -3.99902 -2.49902s-2.66602 -0.833008 -3.99902 -1.5c-2.66699 -1.33301 -4.33398 -2.33301 -5.00098 -3c-4 -2 -7.66699 -3 -11 -3h-4c-3.33301 0.666992 -7.33301 2.66699 -12 6c-4 2.66699 -7 6.66699 -9 12
s-2.66699 9.33301 -2 12l4 14c2 5.33301 4 14 6 26l9 33c0.666992 3.33301 1.33398 6.33301 2.00098 9s1.66699 5.66699 3 9s2.33301 6.33301 3 9s1.33398 5.66699 2.00098 9l25 99l-40 35l-35 30l-28 24c-8 5.33301 -16.333 12.333 -25 21l-19 15l-8 7
c-6.66699 6.66699 -11.334 12.667 -14.001 18c-4 7.33301 -5.66699 13.666 -5 18.999s3.66699 10.666 9 15.999c4 3.33301 8.66699 5.66602 14 6.99902l221 19l82 190c2.66699 6.66699 6.66699 13.667 12 21c7.33301 5.33301 14.666 8 21.999 8z" />
    <glyph glyph-name="J" unicode="J" 
d="M-31 190l7.5 9.50195c2.33301 3 5.16602 6.16699 8.49902 9.5c6 7.33301 13 13.166 21 17.499s17 6.83301 27 7.5c13.333 1.33301 25 -0.833984 35 -6.50098s19 -13.834 27 -24.501c2 -2 3.33301 -3.66699 4 -5c3.33301 -3.33301 5.33301 -7 6 -11s1 -8.33301 1 -13v-173
c0 -23.333 7.33301 -43.333 22 -60c18 -22 41 -33 69 -33h639c20.667 0 39.667 7.66699 57 23c21.333 18.667 32 43 32 73c-0.666992 60 -0.666992 119.333 0 178c0 3.33301 0.666992 6.33301 2 9c5.33301 8 10.833 15.167 16.5 21.5s12.5 11.5 20.5 15.5
c10 5.33301 21.333 7.5 34 6.5s24 -5.16699 34 -12.5c5.33301 -4.66699 10.5 -9.5 15.5 -14.5s9.16699 -10.5 12.5 -16.5c0 -0.666992 0.666992 -1 2 -1v-302c-0.666992 -0.666992 -1 -1.33398 -1 -2.00098c-2 -14.667 -6 -28 -12 -40
c-9.33301 -19.333 -22 -35.666 -38 -48.999c-6.66699 -5.33301 -13.667 -10 -21 -14s-15.333 -7 -24 -9c-3.33301 -1.33301 -7 -2.33301 -11 -3s-7.66699 -1.66699 -11 -3h-857c-0.666992 0 -1 0.166992 -1 0.5s-0.333008 0.5 -1 0.5c-7.33301 0.666992 -14.166 2 -20.499 4
s-12.833 4.66699 -19.5 8c-15.333 8 -29.666 19 -42.999 33c-12.667 14.667 -21.334 30.334 -26.001 47.001c-1.33301 4.66699 -2.5 9.16699 -3.5 13.5s-2.16699 8.83301 -3.5 13.5v302zM553 824.002c5.33301 -2 10.5 -3.83691 15.5 -5.50391s9.5 -4.5 13.5 -8.5l6 -4
c2 -1.33301 3.66699 -2.66602 5 -3.99902l89 -91.5l89 -91.5c12.667 -12.667 19.834 -28.5 21.501 -47.5s-3.16602 -36.167 -14.499 -51.5s-27 -24 -47 -26c-24.667 -2.66699 -46 5 -64 23l-34 35.5l-35 36.5v-9v-525c0 -20 -6.33301 -36.667 -19 -50
c-12.667 -14 -28.334 -21.333 -47.001 -22c-19.333 -1.33301 -36 4.66699 -50 18c-11.333 9.33301 -18.666 22.666 -21.999 39.999c-0.666992 4.66699 -1 9.16699 -1 13.5v13.5v511v8c-1.33301 -1.33301 -2.33301 -2.16602 -3 -2.49902s-1.33398 -1.16602 -2.00098 -2.49902
l-28.5 -29c-9.66699 -10 -19.5 -19.667 -29.5 -29c-3.33301 -4 -7 -7.5 -11 -10.5l-13 -9.5c-4 -3.33301 -8.33301 -5.66602 -13 -6.99902s-9.66699 -2.66602 -15 -3.99902c-14.667 -2 -29.334 0.666992 -44.001 8c-19.333 10.667 -31 27.667 -35 51
c-4.66699 26.667 3 50 23 70l87.5 89.5l87.5 89.5c12 12 25 19.333 39 22c0.666992 0 1 0.166992 1 0.5s0.333008 0.5 1 0.5h49z" />
    <glyph glyph-name="K" unicode="K" 
d="M821 777c15.333 0 28.166 -5 38.499 -15s15.5 -22.333 15.5 -37s-5.16699 -27 -15.5 -37s-23.166 -15 -38.499 -15c-14.667 0 -27.167 5 -37.5 15s-15.5 22.333 -15.5 37s5.16699 27 15.5 37s22.833 15 37.5 15zM489 777c14.667 0 27.167 -5 37.5 -15
s15.5 -22.333 15.5 -37s-5.16699 -27 -15.5 -37s-22.833 -15 -37.5 -15c-15.333 0 -28.166 5 -38.499 15s-15.5 22.333 -15.5 37s5.16699 27 15.5 37s23.166 15 38.499 15zM1042 548l-771.999 0.000976562v8c1.33301 11.333 4.16602 30 8.49902 56s13.5 54 27.5 84
c32.667 70.667 82.667 121.667 150 153l-56 67v1c-3.33301 6 -1.33301 11.667 6 17c3.33301 3.33301 7 5 11 5c3.33301 0 6 -1 8 -3l1 -2l60 -70c48.667 18 104 27 166 27h3c64.667 0 121 -9.33301 169 -28l62 72c2 2.66699 4.66699 4 8 4c2 0 5.66699 -1.33301 11 -4v-1
c8.66699 -6.66699 10.667 -13 6 -19l-56 -67c66.667 -32 116.667 -82.667 150 -152c6.66699 -14.667 12.167 -28.834 16.5 -42.501s7.83301 -26.667 10.5 -39s4.66699 -23.5 6 -33.5s2.33301 -18.333 3 -25zM961.001 617.001c-4 14.667 -9.66992 30.1689 -17.0029 46.502
s-16.666 32.166 -27.999 47.499s-25.166 29.833 -41.499 43.5s-35.5 25.167 -57.5 34.5l-33 15c-38 12 -81 18 -129 18h-3c-44 0 -85.667 -5.66699 -125 -17l-34 -15c-22 -9.33301 -41.167 -20.833 -57.5 -34.5s-30.166 -28.334 -41.499 -44.001s-20.5 -31.667 -27.5 -48
s-12.5 -31.833 -16.5 -46.5h611zM1170 563.003c24.667 0 45.667 -8.5 63 -25.5s26 -37.833 26 -62.5v-322c0 -24.667 -8.66699 -45.5 -26 -62.5s-38.333 -25.5 -63 -25.5s-45.667 8.5 -63 25.5s-26 37.833 -26 62.5v322c0 24.667 8.66699 45.5 26 62.5s38.333 25.5 63 25.5z
M1150 153.003c0 -5.33301 2 -9.83301 6 -13.5s8.66699 -5.5 14 -5.5c12.667 0 19 6.33301 19 19v322c0 12.667 -6.33301 19 -19 19c-5.33301 0 -10 -1.83301 -14 -5.5s-6 -8.16699 -6 -13.5v-322zM141.998 563.003c24.667 0 45.5 -8.5 62.5 -25.5s25.5 -37.833 25.5 -62.5
v-322c0 -24.667 -8.5 -45.5 -25.5 -62.5s-37.833 -25.5 -62.5 -25.5s-45.667 8.5 -63 25.5s-26 37.833 -26 62.5v322c0 24.667 8.66699 45.5 26 62.5s38.333 25.5 63 25.5zM121.998 153.003c0 -5.33301 2 -9.83301 6 -13.5s8.66699 -5.5 14 -5.5s9.83301 1.83301 13.5 5.5
s5.5 8.16699 5.5 13.5v322c0 5.33301 -1.83301 9.83301 -5.5 13.5s-8.16699 5.5 -13.5 5.5s-10 -1.83301 -14 -5.5s-6 -8.16699 -6 -13.5v-322zM268.998 510.003h773v-565c0 -14 -3.66699 -27.167 -11 -39.5s-17.666 -18.5 -30.999 -18.5h-89v-163
c0 -25.333 -8.33301 -46.333 -25 -63s-37.334 -25 -62.001 -25h-2c-20.667 0 -39 6.33301 -55 19c-22.667 18.667 -34 41.667 -34 69v163h-151v-163c0 -24.667 -8.66699 -45.5 -26 -62.5s-38.333 -25.5 -63 -25.5s-45.5 8.5 -62.5 25.5s-25.5 37.833 -25.5 62.5v163h-86
c-14 0 -25.833 6.33301 -35.5 19s-14.5 25.667 -14.5 39v565zM972.998 -43.9971v485h-634v-485h135v-232c0 -5.33301 1.83301 -10 5.5 -14s8.16699 -6 13.5 -6s10 2 14 6s6 8.66699 6 14v232h289v-232c0 -5.33301 2.66699 -10 8 -14l1 -1l2 -1c4 -2.66699 7 -4 9 -4h2
c11.333 1.33301 17 8 17 20v232h132z" />
    <glyph glyph-name="L" unicode="L" 
d="M936 742c18 0 34.667 -3.83301 50 -11.5s28.833 -18 40.5 -31s20.834 -28.5 27.501 -46.5s10 -37 10 -57v-438c0 -20 -3.33301 -39 -10 -57s-15.834 -33.5 -27.501 -46.5s-25.167 -23.333 -40.5 -31s-32 -11.5 -50 -11.5h-351v-146h160c8.66699 0 16.167 -3.5 22.5 -10.5
s9.5 -15.5 9.5 -25.5s-3.16699 -18.667 -9.5 -26s-13.833 -11 -22.5 -11h-384c-8.66699 0 -16.167 3.66699 -22.5 11s-9.5 16 -9.5 26s3.16699 18.5 9.5 25.5s13.833 10.5 22.5 10.5h160v146h-351c-18 0 -34.667 3.83301 -50 11.5s-28.833 18 -40.5 31
s-20.834 28.5 -27.501 46.5s-10 37 -10 57v438c0 20 3.33301 39 10 57s15.834 33.5 27.501 46.5s25.167 23.333 40.5 31s32 11.5 50 11.5h766zM1000 596c0 20 -6.16699 37.167 -18.5 51.5s-27.5 21.5 -45.5 21.5h-766c-18 0 -33.167 -7.16699 -45.5 -21.5
s-18.5 -31.5 -18.5 -51.5v-438c0 -20 6.16699 -37.167 18.5 -51.5s27.5 -21.5 45.5 -21.5h766c18 0 33.167 7.16699 45.5 21.5s18.5 31.5 18.5 51.5v438z" />
    <glyph glyph-name="M" unicode="M" 
d="M883 -42c6 -6 8.99902 -12.999 8.99902 -20.999s-3 -14.667 -9 -20l-64 -61c-6 -5.33301 -13.167 -8 -21.5 -8s-15.5 2.66699 -21.5 8l-127 122c-6 5.33301 -9 12 -9 20s3 15 9 21l3 3l-31 30l-22 21c-6.66699 6.66699 -10 10.334 -10 11.001
c-31.333 -24 -66.166 -42.833 -104.499 -56.5s-79.166 -20.5 -122.499 -20.5c-50 0 -97.167 9.16699 -141.5 27.5s-82.833 43.166 -115.5 74.499s-58.5 68.166 -77.5 110.499s-28.5 87.5 -28.5 135.5s9.5 93 28.5 135s44.833 78.667 77.5 110s71.167 56.166 115.5 74.499
s91.5 27.5 141.5 27.5s97 -9.16699 141 -27.5s82.333 -43.166 115 -74.499s58.5 -68 77.5 -110s28.5 -87 28.5 -135c0 -42 -6.83301 -81.333 -20.5 -118s-33.167 -70 -58.5 -100c0 -0.666992 3.33301 -4.16699 10 -10.5l22 -20.5l32 -30l4 4
c5.33301 5.33301 12.166 8 20.499 8s15.5 -2.66699 21.5 -8zM361.999 141.001c30.667 0 59.5 5.66699 86.5 17s50.667 26.666 71 45.999s36.333 42 48 68s17.5 53.667 17.5 83s-5.83301 57 -17.5 83s-27.667 48.667 -48 68s-44 34.5 -71 45.5s-55.833 16.5 -86.5 16.5
s-59.5 -5.5 -86.5 -16.5s-50.667 -26.167 -71 -45.5s-36.333 -42 -48 -68s-17.5 -53.667 -17.5 -83s5.83301 -57 17.5 -83s27.667 -48.667 48 -68s44 -34.666 71 -45.999s55.833 -17 86.5 -17z" />
    <glyph glyph-name="N" unicode="N" 
d="M803 186c27.333 0 53 -4.83398 77 -14.501s44.833 -22.834 62.5 -39.501s31.667 -36.167 42 -58.5s15.5 -46.166 15.5 -71.499s-5.16699 -49.166 -15.5 -71.499s-24.333 -41.833 -42 -58.5s-38.5 -29.834 -62.5 -39.501s-49.667 -14.5 -77 -14.5s-53 4.83301 -77 14.5
s-44.833 22.834 -62.5 39.501s-31.667 36.167 -42 58.5s-15.5 46.166 -15.5 71.499c0 14.667 2 29 6 43l-285 125c-21.333 -28.667 -49 -51.667 -83 -69s-71 -26 -111 -26c-32.667 0 -63.334 5.83301 -92.001 17.5s-53.834 27.5 -75.501 47.5s-38.667 43.333 -51 70
s-18.5 55.334 -18.5 86.001s6.16699 59.334 18.5 86.001s29.333 50 51 70s46.834 35.833 75.501 47.5s59.334 17.5 92.001 17.5c40 0 77 -8.5 111 -25.5s61.667 -40.167 83 -69.5l285 126c-4 14 -6 28.333 -6 43c0 25.333 5.16699 49.166 15.5 71.499s24.333 41.833 42 58.5
s38.5 29.834 62.5 39.501s49.667 14.5 77 14.5s53 -4.83301 77 -14.5s44.833 -22.834 62.5 -39.501s31.667 -36.167 42 -58.5s15.5 -46.166 15.5 -71.499s-5.16699 -49.166 -15.5 -71.499s-24.333 -41.833 -42 -58.5s-38.5 -29.834 -62.5 -39.501s-49.667 -14.5 -77 -14.5
c-32.667 0 -62.5 6.66699 -89.5 20s-49.5 31.333 -67.5 54l-286 -125c6 -19.333 9 -39.333 9 -60s-3 -40.334 -9 -59.001l286 -125c18 22.667 40.5 40.667 67.5 54s56.833 20 89.5 20zM803 700.999c-16 0 -31.167 -2.83301 -45.5 -8.5s-26.833 -13.5 -37.5 -23.5
s-19.167 -21.667 -25.5 -35s-9.5 -27.666 -9.5 -42.999s3.16699 -29.666 9.5 -42.999s14.833 -25 25.5 -35s23.167 -18 37.5 -24s29.5 -9 45.5 -9s31.167 3 45.5 9s26.833 14 37.5 24s19.167 21.667 25.5 35s9.5 27.666 9.5 42.999s-3.16699 29.666 -9.5 42.999
s-14.833 25 -25.5 35s-23.167 17.833 -37.5 23.5s-29.5 8.5 -45.5 8.5zM133 148.999c22 0 42.5 3.83301 61.5 11.5s35.5 18.167 49.5 31.5s25.167 29 33.5 47s12.5 37 12.5 57c0 20.667 -4.16699 40 -12.5 58s-19.5 33.667 -33.5 47s-30.5 23.833 -49.5 31.5
s-39.5 11.5 -61.5 11.5s-42.5 -3.83301 -61.5 -11.5s-35.667 -18.167 -50 -31.5s-25.666 -29 -33.999 -47s-12.5 -37.333 -12.5 -58c0 -20 4.16699 -39 12.5 -57s19.666 -33.667 33.999 -47s31 -23.833 50 -31.5s39.5 -11.5 61.5 -11.5zM803 -109.001c16 0 31.167 3 45.5 9
s26.833 14 37.5 24s19.167 21.667 25.5 35s9.5 27.666 9.5 42.999s-3.16699 29.666 -9.5 42.999s-14.833 25 -25.5 35s-23.167 17.833 -37.5 23.5s-29.5 8.5 -45.5 8.5s-31.167 -2.83301 -45.5 -8.5s-26.833 -13.5 -37.5 -23.5s-19.167 -21.667 -25.5 -35
s-9.5 -27.666 -9.5 -42.999s3.16699 -29.666 9.5 -42.999s14.833 -25 25.5 -35s23.167 -18 37.5 -24s29.5 -9 45.5 -9z" />
    <glyph glyph-name="O" unicode="O" 
d="M-34 604v-799c0 -0.666992 0.333008 -1 1 -1h841l1 1v799l-1 1h-841c-0.666992 0 -1 -0.333008 -1 -1zM-104 604c0 18.667 7 34.667 21 48s30.667 20 50 20h841c19.333 0 36 -6.5 50 -19.5s21 -29.167 21 -48.5v-799c0 -18.667 -7 -34.5 -21 -47.5
s-30.667 -19.5 -50 -19.5h-841c-19.333 0 -36 6.5 -50 19.5s-21 28.833 -21 47.5v799zM1009 795c6.66699 -6.66699 10 -14.332 10 -22.999v-868c0 -9.33301 -3.5 -17.166 -10.5 -23.499s-15.167 -9.5 -24.5 -9.5s-17.5 3.16699 -24.5 9.5s-10.5 14.166 -10.5 23.499v834
h-878c-9.33301 0 -17.5 3.33301 -24.5 10s-10.5 14.667 -10.5 24s3.5 17.166 10.5 23.499s15.167 9.5 24.5 9.5h913c10 0 18.333 -3.33301 25 -10z" />
    <glyph glyph-name="P" unicode="P" 
d="M124 404c13.333 0 25.665 -2.33398 36.998 -7.00098s21.666 -11.667 30.999 -21s16.333 -19.666 21 -30.999c5.33301 -12.667 8 -25 8 -37c0 -14 -2.33301 -26 -7 -36c-5.33301 -11.333 -12.333 -21.333 -21 -30c-9.33301 -9.33301 -19.666 -16.333 -30.999 -21
s-23.666 -7 -36.999 -7c-12 0 -24.333 2.66699 -37 8c-12 4.66699 -22 11.667 -30 21c-8.66699 10 -15.334 20 -20.001 30s-7 22 -7 36c0 12 2.66699 24.333 8 37c4.66699 10.667 11.334 21 20.001 31c8 8.66699 18 15.667 30 21c12.667 5.33301 25.334 8 38.001 8z
M422.999 401.999c14 0 26.666 -2.33301 37.999 -7c12 -5.33301 22 -12.333 30 -21c8.66699 -10 15.334 -20.333 20.001 -31c5.33301 -12.667 8 -25 8 -37c0 -14 -2.33301 -26 -7 -36s-11.334 -20 -20.001 -30c-8 -9.33301 -18 -16.333 -30 -21
c-11.333 -4.66699 -23.666 -7 -36.999 -7c-12 0 -24 2.66699 -36 8c-11.333 5.33301 -21 12.333 -29 21c-8.66699 10 -15.334 20 -20.001 30s-7 22 -7 36c0 12 2.66699 24.333 8 37c4.66699 10.667 11.334 21 20.001 31c8 8.66699 17.667 15.667 29 21c12 5.33301 24 8 36 8
zM742.998 399.999c13.333 0 25.666 -2.33301 36.999 -7s21.666 -11.667 30.999 -21s16.333 -19.666 21 -30.999c5.33301 -12.667 8 -25 8 -37c0 -14 -2.33301 -26 -7 -36c-5.33301 -11.333 -12.333 -21.333 -21 -30c-9.33301 -9.33301 -19.666 -16.333 -30.999 -21
s-23.666 -7 -36.999 -7c-12 0 -24 2.66699 -36 8c-11.333 4.66699 -21.333 11.667 -30 21c-9.33301 8.66699 -16.333 18.667 -21 30c-4.66699 10 -7 22 -7 36c0 12 2.66699 24.333 8 37c4.66699 11.333 11.667 21.666 21 30.999c8.66699 8.66699 18.667 15.667 30 21
c12 5.33301 24 8 36 8z" />
    <glyph glyph-name="Q" unicode="Q" 
d="M826 503c0 -16.667 -5.33594 -30.333 -16.0029 -41c-11.333 -11.333 -24.333 -17.333 -39 -18l-163 -397h-370l-157 381c-16.667 0 -31 6 -43 18s-18 26.333 -18 43s6 31 18 43l-1 2l1 -1c4.66699 4.66699 10.667 8.66699 18 12c8 3.33301 16 5 24 5
c16.667 0 31 -6 43 -18s18 -26.333 18 -43c0 -10 -1.33301 -17.667 -4 -23l52 -29c18 -10 39.667 -15 65 -15h11c3.33301 0 7 0.666992 11 2c20.667 3.33301 38.334 10.666 53.001 21.999c15.333 12 28 25.667 38 41c9.33301 14.667 17.333 29.334 24 44.001
c6.66699 15.333 10.334 26.333 11.001 33c-10.667 4 -20 11 -28 21s-12 21.667 -12 35c0 17.333 6 32 18 44s26.667 18 44 18s32 -6 44 -18s18 -26.333 18 -43c0 -12.667 -3 -23.334 -9 -32.001c-6 -9.33301 -14.333 -16.333 -25 -21
c0.666992 -5.33301 4.33398 -15.666 11.001 -30.999c6 -14 14.333 -28.333 25 -43s24 -28 40 -40c16.667 -12.667 35 -20.334 55 -23.001c4 -1.33301 7.66699 -2 11 -2h13c26 0 47.667 5 65 15l50 29c-6.66699 10.667 -10 22.334 -10 35.001c0 16.667 6 31 18 43
s26.333 18 43 18c17.333 0 32 -6 44 -18s18 -26.333 18 -43zM658.997 385.001c-16.667 -7.33301 -36.667 -11.001 -60 -11.001c-11.333 0 -22 1 -32 3c-16.667 3.33301 -32.334 8.33301 -47.001 15c-15.333 6.66699 -29.333 14.667 -42 24
c-12 8.66699 -23.333 18.667 -34 30c-9.33301 10 -16.666 21 -21.999 33c-4.66699 -10 -11.667 -21.333 -21 -34c-8.66699 -11.333 -19.667 -21.666 -33 -30.999s-27.333 -17.333 -42 -24c-14 -6.66699 -30 -11 -48 -13c-5.33301 -1.33301 -9.33301 -2 -12 -2h-13
c-26 0 -47.333 4 -64 12l-54 26l133 -322h309l133 323z" />
    <glyph glyph-name="R" unicode="R" 
d="M526 -21c-10 0 -18.667 3.66699 -26 11s-11 16 -11 26v413c0 14.667 6.33301 25.667 19 33c12 7.33301 24.333 7.33301 37 0c12 -7.33301 18 -18.333 18 -33v-413c0 -9.33301 -3.33301 -18 -10 -26c-7.33301 -7.33301 -16.333 -11 -27 -11zM304 -21
c-10 0 -18.667 3.66699 -26 11s-11 16 -11 26v413c0 10.667 3.66699 19.667 11 27s16 11 26 11s18.667 -3.66699 26 -11s11 -16.333 11 -27v-413c0 -10 -3.66699 -18.667 -11 -26s-16 -11 -26 -11zM897 617c10.667 0 19.501 -3.66699 26.501 -11s10.5 -16 10.5 -26
c0 -10.667 -3.5 -19.667 -10.5 -27s-15.833 -11 -26.5 -11h-964c-10 0 -18.667 3.66699 -26 11s-11 16.333 -11 27c0 10 3.66699 18.667 11 26s16 11 26 11h185v75c0 15.333 3 29.833 9 43.5s14 25.667 24 36s21.833 18.5 35.5 24.5s28.167 9 43.5 9h371
c15.333 0 29.666 -3 42.999 -9s25 -14.167 35 -24.5s18 -22.333 24 -36s9 -28.167 9 -43.5v-75h185zM193.001 617h445v75c0 10.667 -3.5 19.667 -10.5 27s-15.833 11 -26.5 11h-371c-10.667 0 -19.5 -3.66699 -26.5 -11s-10.5 -16.333 -10.5 -27v-75zM675.001 -247h-519.002
c-15.333 0 -29.833 3 -43.5 9s-25.5 14.167 -35.5 24.5s-18 22.333 -24 36s-9 28.167 -9 43.5v564c0 15.333 6 26.666 18 33.999c13.333 8 26 8 38 0c13.333 -7.33301 19.333 -18.666 18 -33.999v-564c0 -10.667 3.66699 -19.667 11 -27s16.333 -11 27 -11h519
c10 0 18.667 3.66699 26 11s11 16.333 11 27v562c-1.33301 15.333 4.66699 26.666 18 33.999c12.667 7.33301 25.334 7.33301 38.001 0c12 -7.33301 18 -18.666 18 -33.999v-562c0 -15.333 -3 -29.833 -9 -43.5s-14 -25.667 -24 -36s-21.667 -18.5 -35 -24.5
s-27.666 -9 -42.999 -9z" />
    <glyph glyph-name="S" unicode="S" 
d="M769 -89c-6.66699 0 -12.666 2.66699 -17.999 8l-614 720c-5.33301 4.66699 -7.33301 10.667 -6 18c0.666992 6.66699 3.66699 12.667 9 18c4.66699 4.66699 10.667 6.66699 18 6c6.66699 -1.33301 12.667 -4.33301 18 -9l615 -720
c4.66699 -5.33301 6.66699 -11.333 6 -18c-1.33301 -7.33301 -4.33301 -13.333 -9 -18c-4.66699 -3.33301 -10.334 -5 -17.001 -5h-2zM281.001 568c25.333 23.333 54.665 40.335 87.998 51.002v6v6c0 19.333 7 36 21 50s31 21 51 21s37 -7 51 -21s21 -30.667 21 -50
c0 -6 -0.333008 -9.66699 -1 -11c52.667 -16.667 94.667 -46.334 126 -89.001s47 -95 47 -157v-137c2 -23.333 5 -43.333 9 -60c2.66699 -14.667 7.33398 -28.334 14.001 -41.001c6 -12 13.667 -18 23 -18c10.667 0 19.334 -3.33301 26.001 -10
c7.33301 -7.33301 11 -15.333 11 -24c0 -9.33301 -3.33301 -17.333 -10 -24s-15 -10 -25 -10h-8l-444 521v-3zM146 46.002c-9.33301 0 -17.668 3.66602 -25.001 10.999c-6.66699 6.66699 -10 15.334 -10 26.001c0 8.66699 3.66699 16.667 11 24s16.333 11 27 11
c9.33301 0 17 6 23 18c6.66699 12.667 11.334 26.334 14.001 41.001c4 16.667 7 36.667 9 60v136c0 24.667 3 48 9 70c6 21.333 14 41.666 24 60.999l390 -457h-176zM437.998 -77.999c-15.333 0 -29.333 3 -42 9s-24 14 -34 24s-18 21.667 -24 35c-6 12.667 -9 26.667 -9 42
h219c0 -15.333 -3 -29.333 -9 -42s-14 -24 -24 -34s-21.667 -18 -35 -24s-27.333 -9 -42 -9v-1z" />
    <glyph glyph-name="T" unicode="T" 
d="M863 8v-60h-870v60l127 105v297c0 38.667 6.5 75.167 19.5 109.5s30.833 65.166 53.5 92.499s49.5 50.166 80.5 68.499s64.5 30.833 100.5 37.5v24c0 10 3.5 18.667 10.5 26s15.5 11 25.5 11h36c10 0 18.667 -3.66699 26 -11s11 -16 11 -26v-24
c36 -6.66699 69.5 -19.167 100.5 -37.5s57.833 -41.166 80.5 -68.499s40.5 -58.166 53.5 -92.499s19.5 -70.833 19.5 -109.5v-297zM827 -10l-113 94l-14 11v18v297c0 38 -7.16699 73.833 -21.5 107.5s-33.833 63 -58.5 88s-53.5 44.833 -86.5 59.5s-68.167 22 -105.5 22
s-72.5 -7.33301 -105.5 -22s-61.833 -34.5 -86.5 -59.5s-44.167 -54.333 -58.5 -88s-21.5 -69.5 -21.5 -107.5v-297v-18l-13 -11l-114 -94v-5h798v5zM428 -181c-12.667 0 -24.5 2.33301 -35.5 7s-20.667 11.167 -29 19.5s-14.833 18.166 -19.5 29.499s-7 23.333 -7 36h182
c0 -12.667 -2.33301 -24.667 -7 -36s-11.167 -21.166 -19.5 -29.499s-18 -14.833 -29 -19.5s-22.833 -7 -35.5 -7z" />
    <glyph glyph-name="U" unicode="U" 
d="M504 616h-271c-7.33301 0 -13.833 4.83301 -19.5 14.5s-8.5 21.5 -8.5 35.5c0 13.333 2.83301 24.833 8.5 34.5s12.167 14.5 19.5 14.5h271c8 0 14.833 -4.83301 20.5 -14.5s8.5 -21.167 8.5 -34.5c0 -14 -2.83301 -25.833 -8.5 -35.5s-12.5 -14.5 -20.5 -14.5zM562 257
h-308c-13.333 0 -25 5 -35 15c-9.33301 9.33301 -14 21 -14 35c0 13.333 4.83301 25 14.5 35s21.167 15 34.5 15h308c13.333 0 24.833 -5 34.5 -15s14.5 -21.667 14.5 -35c0 -14 -4.66699 -25.667 -14 -35c-10 -10 -21.667 -15 -35 -15zM732 -91h-478.001
c-13.333 0 -25 5 -35 15c-9.33301 9.33301 -14 21 -14 35c0 12.667 4.66699 24.334 14 35.001c8.66699 8.66699 20.334 13.667 35.001 15h478c13.333 -1.33301 25 -6.33301 35 -15c9.33301 -10.667 14 -22.334 14 -35.001c0 -14 -4.66699 -25.667 -14 -35
c-10 -10 -21.667 -15 -35 -15zM1253 393c-9.33301 -9.33301 -21.002 -14 -35.002 -14c-12.667 0 -24.334 4.66699 -35.001 14l-159 162v-595c0 -14 -4.66699 -25.833 -14 -35.5s-20.666 -14.5 -33.999 -14.5s-24.833 4.83301 -34.5 14.5s-14.5 21.5 -14.5 35.5v597
l-160 -165c-9.33301 -10 -20.666 -15 -33.999 -15c-14 0 -25.667 4.66699 -35 14c-9.33301 10 -14 21.833 -14 35.5s4.66699 25.5 14 35.5l242 250c8.66699 10 20.334 15 35.001 15c13.333 0 24.666 -4.66699 33.999 -14l1 -1l243 -248c10 -10 14.833 -21.833 14.5 -35.5
s-5.16602 -25.5 -14.499 -35.5z" />
    <glyph glyph-name="V" unicode="V" 
d="M889 78c0 -1.33301 -1.5 -6.17188 -4.5 -14.5049s-7.66699 -19 -14 -32s-14.333 -27.667 -24 -44s-21.167 -33.166 -34.5 -50.499l-36 -44.5c-12 -14.333 -25 -27.166 -39 -38.499s-29 -20.5 -45 -27.5s-33.667 -10.5 -53 -10.5c-18.667 -0.666992 -34.834 1 -48.501 5
s-27 8.5 -40 13.5s-27 9.66699 -42 14s-33.5 6.5 -55.5 6.5c-21.333 0 -39.666 -2 -54.999 -6s-29.5 -8.5 -42.5 -13.5s-26.167 -9.66699 -39.5 -14s-29 -6.83301 -47 -7.5c-18.667 -0.666992 -36.167 2.83301 -52.5 10.5s-31.833 17.5 -46.5 29.5s-28.5 25.5 -41.5 40.5
l-37.5 44.5c-24 30.667 -45.833 66.834 -65.5 108.501s-34 85 -43 130s-11.167 90 -6.5 135s19.334 86.167 44.001 123.5c24.667 38 57.667 68 99 90s86 33.333 134 34c18 0 35.667 -2.16699 53 -6.5s34 -9.16602 50 -14.499l44.5 -15c13.667 -4.66699 26.167 -7 37.5 -7
s24.833 2.83301 40.5 8.5s32.834 11.5 51.501 17.5s38.5 11.333 59.5 16s42.5 6 64.5 4c9.33301 -0.666992 22.166 -2.16699 38.499 -4.5s34.166 -7 53.499 -14s39 -16.833 59 -29.5s38.333 -29.334 55 -50.001c-1.33301 -0.666992 -8.5 -5 -21.5 -13s-27 -19.833 -42 -35.5
s-28.5 -35.167 -40.5 -58.5s-18 -50.333 -18 -81c0 -25.333 3.83301 -47.666 11.5 -66.999s17.167 -36.333 28.5 -51s23.333 -27.167 36 -37.5s24.5 -18.666 35.5 -24.999s20.333 -11 28 -14zM597 642.994c-20 -20.667 -44.834 -37.833 -74.501 -51.5
s-60.5 -19.834 -92.5 -18.501c-2 14 -1.83301 28.167 0.5 42.5s6.33301 28.166 12 41.499s12.5 25.833 20.5 37.5s16.667 22.167 26 31.5c20.667 21.333 46.5 38.833 77.5 52.5s60.5 21.167 88.5 22.5c3.33301 -29.333 -0.666992 -57.666 -12 -84.999
s-26.666 -51.666 -45.999 -72.999z" />
    <glyph glyph-name="W" unicode="W" 
d="M420 -15c15.333 0 28.5 -4.83301 39.5 -14.5s16.5 -21.5 16.5 -35.5c0 -13.333 -5.5 -25 -16.5 -35s-24.167 -15 -39.5 -15s-28.5 5 -39.5 15s-16.5 21.667 -16.5 35c0 14 5.5 25.833 16.5 35.5s24.167 14.5 39.5 14.5zM698 771c23.333 0 43.166 -7.33105 59.499 -21.998
s24.5 -32.334 24.5 -53.001v-830c0 -20.667 -8.16699 -38.334 -24.5 -53.001s-36.166 -22 -59.499 -22h-555c-12 0 -23.167 2 -33.5 6s-19.333 9.33301 -27 16s-13.667 14.667 -18 24s-6.5 19 -6.5 29v830c0 10 2.16699 19.667 6.5 29s10.333 17.333 18 24s16.667 12 27 16
s21.5 6 33.5 6h555zM143 721.002c-8 0 -14.833 -2.5 -20.5 -7.5s-8.5 -10.833 -8.5 -17.5v-622h612v622c0 6.66699 -2.83301 12.5 -8.5 17.5s-12.167 7.5 -19.5 7.5h-555zM698 -158.998c7.33301 0 13.833 2.5 19.5 7.5s8.5 10.833 8.5 17.5v154h-612v-154
c0 -6.66699 2.83301 -12.5 8.5 -17.5s12.5 -7.5 20.5 -7.5h555z" />
    <glyph glyph-name="X" unicode="X" 
d="M832 595h-844.001c-11.333 0 -21.666 4.66699 -30.999 14c-8 8.66699 -12 19.667 -12 33c0 12.667 4 23.667 12 33c8.66699 8.66699 19 13 31 13h844c11.333 0 21.333 -4.33301 30 -13c8 -9.33301 12 -20.333 12 -33c0 -13.333 -4 -24.333 -12 -33
c-8 -9.33301 -18 -14 -30 -14zM831.999 271h-844c-11.333 0 -21.666 4.66699 -30.999 14c-8 8.66699 -12 19.667 -12 33c0 12.667 4 23.667 12 33c9.33301 9.33301 19.666 14 30.999 14h844c10.667 0 20.667 -4.66699 30 -14c8 -9.33301 12 -20.333 12 -33
c0 -13.333 -4 -24.333 -12 -33c-8 -9.33301 -18 -14 -30 -14zM831.999 -52h-844c-12 0 -22.333 4.33301 -31 13c-8 8.66699 -12 19.667 -12 33c0 12 4 22.667 12 32c8.66699 9.33301 19 14 31 14h844c11.333 0 21.333 -4.66699 30 -14c8 -9.33301 12 -20 12 -32
c0 -13.333 -4 -24.333 -12 -33s-18 -13 -30 -13z" />
    <glyph glyph-name="Y" unicode="Y" 
d="M878 142c8 0 14.834 -2.83301 20.501 -8.5s9.5 -12.5 11.5 -20.5v-131c0 -13.333 -3.5 -25.666 -10.5 -36.999s-15.333 -21.333 -25 -30s-19.834 -15.334 -30.501 -20.001s-20 -7 -28 -7h-643c-26.667 0 -49 8.83301 -67 26.5s-27 38.834 -27 63.501v635
c0 26.667 9 49 27 67s40.333 27 67 27h647c27.333 0 50 -9 68 -27s27 -40.333 27 -67v-127c0 -10.667 -3 -18.834 -9 -24.501s-14 -8.5 -24 -8.5c-10.667 0 -18.834 3.33301 -24.501 10s-8.5 14.334 -8.5 23.001v127c0 10 -3.33301 18 -10 24s-14.334 9 -23.001 9h-643
c-10 0 -18 -3.5 -24 -10.5s-9 -14.5 -9 -22.5v-631c0 -10.667 3.5 -18.834 10.5 -24.501s14.5 -8.5 22.5 -8.5h639c10.667 0 18.834 3.5 24.501 10.5s8.5 14.5 8.5 22.5v131c2 8 5.83301 14.833 11.5 20.5s12.834 8.5 21.501 8.5zM935.001 310
c2 -4.66699 2.99902 -9.33496 2.99902 -14.002s-1 -11 -3 -19c-2 0 -3.33301 -0.833008 -4 -2.5s-2 -3.5 -4 -5.5l-197 -197c-2 -2 -4.83301 -3.83301 -8.5 -5.5s-7.5 -2.5 -11.5 -2.5c-8.66699 0 -15.667 2.66699 -21 8c-6 6 -9 13.5 -9 22.5s3 16.5 9 22.5l144 143h-439
c-10 0 -17.833 3.5 -23.5 10.5s-8.5 14.5 -8.5 22.5c0 10.667 3.33301 18.834 10 24.501s14 8.5 22 8.5h439l-144 143c-6 6.66699 -9 14.334 -9 23.001s3 16 9 22c6.66699 6.66699 14.334 10 23.001 10s16 -3.33301 22 -10l193 -196c5.33301 0 8 -2.66699 8 -8z" />
    <glyph glyph-name="Z" unicode="Z" 
d="M904 -32c13.333 -14 19.999 -30.168 19.999 -48.501s-6.66699 -34.166 -20 -47.499c-14 -13.333 -30.167 -20 -48.5 -20s-34.166 6.66699 -47.499 20l-287 287l-286 -287c-14 -13.333 -30.167 -20 -48.5 -20s-34.166 6.66699 -47.499 20s-20 29.166 -20 47.499
s6.66699 34.5 20 48.5l287 286l-294 287c-5.33301 6.66699 -9.16602 14.5 -11.499 23.5s-3.5 18.167 -3.5 27.5s1.16699 18.5 3.5 27.5s6.16602 17.167 11.499 24.5c14 10 31.167 15 51.5 15s37.5 -5 51.5 -15l286 -294l287 287c13.333 13.333 29.166 20 47.499 20
s34.5 -6.66699 48.5 -20c13.333 -14 20 -30.167 20 -48.5s-6.66699 -34.166 -20 -47.499l-287 -287z" />
    <glyph glyph-name="bracketleft" unicode="[" 
 />
    <glyph glyph-name="a" unicode="a" 
 />
    <glyph glyph-name="z" unicode="z" 
d="M197 183l-37 36l236 235l36 37l37 -37l232 -232l-36 -36l-233 233z" />
    <glyph glyph-name=".null" horiz-adv-x="0" 
 />
    <glyph glyph-name="nonmarkingreturn" horiz-adv-x="500" 
 />
  </font>
</defs>
</svg>
